{"title":"Naruto Shippuuden - 332 [720p] [ENG-SUBBED] [GWC].mkv","uid":8965752,"size":97111872,"categoryP":"video","categoryS":"tv_shows","magnet":"?xt=urn:btih:960128646a657e05e50a96322896432f96384bec&amp;dn=Naruto+Shippuuden+-+332+%5B720p%5D+%5BENG-SUBBED%5D+%5BGWC%5D.mkv&amp;tr=udp%3A%2F%2Ftracker.openbittorrent.com%3A80&amp;tr=udp%3A%2F%2Fopen.demonii.com%3A1337&amp;tr=udp%3A%2F%2Ftracker.coppersurfer.tk%3A6969&amp;tr=udp%3A%2F%2Fexodus.desync.com%3A6969","seeders":0,"leechers":0,"uploader":"canc232","files":1,"time":1380217442,"description":"Naruto Shippuuden - 332 [360p] [ENG-SUBBED] [GWC].mp4\nEpisode Title : The Will of Stone\n\nTHUMBNAIL IMAGE : &lt;a href=&quot;\nhttp://img51.imageshack.us/img51/1909/2zty.jpg&quot; rel=&quot;nofollow&quot; target=&quot;_NEW&quot;&gt;\nhttp://img51.imageshack.us/img51/1909/2zty.jpg&lt;/a&gt;\n\nGeneral \nFormat : Matroska \nFile size : 92.6 MiB \nDuration : 23mn 9s \nOverall bit rate mode : Variable \nOverall bit rate : 559 Kbps \nWriting application : mkvmerge v6.4.1 ('Omega Point')\n\nVideo \nID : 2 \nFormat : AVC \nFormat/Info : Advanced Video Codec \nFormat profile : &lt;a class=&quot;__cf_email__&quot; href=&quot;/cdn-cgi/l/email-protection&quot; data-cfemail=&quot;5a12333d321a166e746b&quot;&gt;[email&amp;#160;protected]&lt;/a&gt;&lt;script cf-hash='f9e31' type=&quot;text/javascript&quot;&gt;\n/* &lt;![CDATA[ */!function(){try{var t=&quot;currentScript&quot;in document?document.currentScript:function(){for(var t=document.getElementsByTagName(&quot;script&quot;),e=t.length;e--;)if(t[e].getAttribute(&quot;cf-hash&quot;))return t[e]}();if(t&amp;&amp;t.previousSibling){var e,r,n,i,c=t.previousSibling,a=c.getAttribute(&quot;data-cfemail&quot;);if(a){for(e=&quot;&quot;,r=parseInt(a.substr(0,2),16),n=2;a.length-n;n+=2)i=parseInt(a.substr(n,2),16)^r,e+=String.fromCharCode(i);e=document.createTextNode(e),c.parentNode.replaceChild(e,c)}}}catch(u){}}();/* ]]&gt; */&lt;/script&gt; \nFormat settings, CABAC : Yes \nFormat settings, ReFrames : 11 frames \nCodec ID : V_MPEG4/ISO/AVC \nDuration : 23mn 9s \nBit rate : 510 Kbps \nWidth : 1 280 pixels \nHeight : 720 pixels \nDisplay aspect ratio : 16:9 \nFrame rate mode : Constant \nStream size : 81.5 MiB\nTitle : Naruto Shippuuden - 332 [720p] [ENG-SUBBED][GWC] \nWriting library : x264 core\nLanguage : English \n\nAudio \nID : 1 \nFormat : Vorbis \nCodec ID : A_VORBIS \nDuration : 23mn 9s \nBit rate mode : Variable \nBit rate : 56.0 Kbps \nChannel(s) : 2 channels \nSampling rate : 44.1 KHz \nStream size : 9.28 MiB\n\nText \nID : 3 \nFormat : ASS \nCodec ID : S_TEXT/ASS \nCodec ID/Info : Advanced Sub Station Alpha \nCompression mode : Lossless \nLanguage : English","torrent":{"xt":"urn:btih:960128646a657e05e50a96322896432f96384bec","amp;dn":"Naruto+Shippuuden+-+332+%5B720p%5D+%5BENG-SUBBED%5D+%5BGWC%5D.mkv","amp;tr":["udp%3A%2F%2Ftracker.openbittorrent.com%3A80","udp%3A%2F%2Fopen.demonii.com%3A1337","udp%3A%2F%2Ftracker.coppersurfer.tk%3A6969","udp%3A%2F%2Fexodus.desync.com%3A6969"],"infoHash":"960128646a657e05e50a96322896432f96384bec","infoHashBuffer":{"type":"Buffer","data":[150,1,40,100,106,101,126,5,229,10,150,50,40,150,67,47,150,56,75,236]},"announce":[],"urlList":[]}}